<?xml version="1.0" encoding="UTF-8" standalone="no"?>
<!DOCTYPE svg PUBLIC "-//W3C//DTD SVG 1.1//EN" "http://www.w3.org/Graphics/SVG/1.1/DTD/svg11.dtd">
<svg width="100%" height="100%" viewBox="0 0 1822 1463" version="1.1" xmlns="http://www.w3.org/2000/svg" xmlns:xlink="http://www.w3.org/1999/xlink" xml:space="preserve" xmlns:serif="http://www.serif.com/" style="fill-rule:evenodd;clip-rule:evenodd;stroke-linecap:round;stroke-linejoin:round;stroke-miterlimit:1.5;">
    <g transform="matrix(1,0,0,1,153.694,-9.75158)">
        <g>
            <path d="M795.681,187.156C872.981,190.856 937.981,203.456 992.181,225.356C1009.78,232.456 1031.88,243.856 1044.18,252.056C1058.88,261.956 1058.78,261.756 1057.18,263.656C1056.48,264.456 1056.08,265.356 1056.28,265.556C1056.48,265.656 1060.48,266.356 1065.18,267.056C1095.28,271.456 1137.78,286.256 1180.78,307.156C1222.28,327.356 1271.78,356.856 1305.58,381.756L1313.58,387.556L1310.08,388.456C1298.08,391.656 1265.98,383.656 1253.38,374.256C1209.58,341.956 1164.98,323.256 1127.28,321.456C1100.18,320.156 1075.28,327.956 1059.38,342.656C1050.78,350.656 1048.78,355.056 1051.48,360.656C1053.08,363.956 1058.98,368.756 1062.18,369.256C1062.98,369.456 1067.78,368.556 1072.68,367.356C1117.38,356.756 1170.78,365.856 1226.48,393.756C1237.58,399.356 1254.98,409.556 1263.58,415.356L1268.48,418.756L1278.08,415.456C1294.68,409.856 1301.78,408.656 1320.68,408.656C1330.78,408.656 1340.08,409.256 1343.68,409.956C1350.78,411.456 1368.08,416.856 1370.18,418.156C1372.88,419.856 1371.98,443.356 1368.78,455.656C1366.08,465.856 1357.68,484.556 1354.28,487.556C1352.58,489.156 1352.08,489.056 1346.98,486.856C1339.08,483.356 1324.68,474.456 1293.98,454.056C1261.98,432.756 1244.88,422.456 1225.68,412.656C1200.58,399.856 1172.38,390.056 1148.68,385.956C1131.68,383.056 1109.68,383.756 1096.68,387.556C1074.48,394.156 1051.38,408.856 1031.98,428.756C1003.48,457.956 988.781,494.756 986.881,541.656L986.681,547.656L982.981,541.656C978.281,533.856 973.781,522.756 970.981,511.456C968.881,503.556 968.681,500.256 968.681,480.156C968.781,459.456 968.981,456.656 971.481,444.656C976.581,420.656 988.381,389.156 993.881,384.856C1013.88,369.056 1025.18,353.856 1025.18,342.456C1025.18,335.756 1023.38,331.356 1019.28,327.856C1016.48,325.456 1015.18,325.156 1009.18,325.156C1000.48,325.156 982.681,322.056 968.881,318.156C949.681,312.756 935.981,306.856 903.181,289.956C888.381,282.356 876.581,277.656 863.781,274.156L856.681,272.256L915.581,272.256L974.581,272.156L980.581,276.156C986.481,279.956 993.881,283.156 996.781,283.156C998.981,283.156 1002.18,279.356 1002.18,276.756C1002.18,273.156 990.081,261.556 977.581,253.156C924.281,217.556 829.281,196.056 703.681,191.156C688.281,190.556 675.281,189.956 674.681,189.756C674.181,189.556 679.281,189.156 686.181,188.656C725.681,186.156 764.181,185.656 795.681,187.156ZM769.081,246.256C742.881,275.156 725.481,299.656 711.081,327.656C699.381,350.456 690.781,374.356 687.681,392.556L687.081,396.456L694.881,389.556C723.081,365.056 754.381,348.856 792.581,339.156C807.181,335.456 826.481,332.156 833.281,332.156C836.481,332.156 835.681,333.056 815.081,353.856C803.181,365.856 790.381,379.456 786.481,384.156C760.881,414.956 743.781,447.956 725.181,502.956C717.781,524.556 715.081,533.156 715.581,533.156C715.781,533.156 719.081,529.456 722.881,524.856C732.281,513.756 752.581,493.956 764.181,484.556C811.281,446.556 873.081,418.156 933.381,406.856L940.981,405.456L934.581,412.956C914.181,436.956 905.181,460.556 905.181,490.656C905.181,510.456 909.681,530.456 918.581,549.656L922.081,557.356L918.881,559.956C899.881,575.756 860.981,613.856 840.681,636.656C834.781,643.256 823.781,656.356 816.181,665.756L802.481,682.756L800.881,693.256C798.181,710.156 796.881,735.956 797.581,757.156C798.181,777.356 799.681,794.156 805.781,853.456L809.381,888.156L804.981,893.456C776.581,926.556 747.581,982.256 727.781,1041.26C720.881,1061.86 712.481,1091.96 708.181,1111.36L704.981,1126.06L707.681,1138.76C714.781,1172.96 729.581,1204.06 751.881,1231.66C776.781,1262.56 817.881,1293.66 854.281,1309.26C859.781,1311.56 863.981,1313.66 863.681,1313.96C862.281,1315.36 831.581,1307.96 814.981,1302.26C797.981,1296.36 784.381,1290.16 765.981,1279.96C713.981,1251.06 654.881,1209.56 609.681,1170.26C594.681,1157.26 565.081,1127.56 555.081,1115.66C546.681,1105.66 536.181,1091.96 536.181,1091.16C536.281,1090.86 541.581,1086.76 547.981,1081.86C580.481,1057.56 613.881,1026.06 638.681,996.456C648.581,984.656 661.181,968.056 661.181,966.856C661.181,966.556 651.581,972.756 639.881,980.456C540.781,1046.46 404.281,1096.46 245.181,1125.06C209.081,1131.56 147.181,1140.26 137.681,1140.16C135.781,1140.06 140.981,1137.66 152.681,1133.26C188.581,1119.66 210.681,1109.96 244.181,1093.16C372.181,1028.76 484.481,933.056 572.181,813.656C584.481,796.856 607.981,761.556 618.681,743.656C626.981,729.956 648.481,689.656 650.181,684.756C650.981,682.556 648.881,684.156 640.881,691.856C595.781,735.256 525.381,767.956 434.681,787.556C405.081,793.956 364.081,800.056 329.181,803.156C318.481,804.156 282.181,805.956 281.481,805.656C281.281,805.556 289.181,802.856 298.981,799.756C380.681,773.056 452.081,734.056 512.181,683.356C528.781,669.256 557.181,640.756 570.581,624.656C590.581,600.556 610.981,570.156 617.981,553.856C619.481,550.456 619.081,550.656 611.181,557.056C597.481,568.156 573.381,581.256 552.781,588.656C525.381,598.556 483.681,606.156 456.781,606.156L447.781,606.156L456.781,600.056C486.981,579.456 514.081,551.456 537.781,516.156C553.581,492.756 565.381,472.056 594.181,417.156C626.081,356.556 646.981,325.456 674.181,298.156C693.981,278.256 713.881,263.956 737.781,252.456C748.281,247.356 772.081,238.356 775.081,238.256C775.781,238.156 773.081,241.856 769.081,246.256ZM1018.38,1048.36C1023.58,1050.76 1024.08,1051.36 1025.78,1056.26C1028.48,1064.06 1028.28,1076.26 1025.48,1082.16C1021.18,1091.16 1022.18,1090.96 1006.48,1085.06C978.181,1074.46 959.181,1064.86 954.781,1058.86C952.681,1055.96 952.681,1055.96 954.681,1054.56C957.781,1052.26 965.581,1050.26 982.281,1047.66C1001.58,1044.66 1010.58,1044.76 1018.38,1048.36ZM983.881,950.156C986.281,955.556 992.481,961.456 997.481,963.056C1000.48,964.056 1002.78,963.956 1010.88,962.256C1026.88,958.956 1036.88,957.856 1051.18,957.856C1066.98,957.756 1077.88,959.856 1087.48,964.556C1093.28,967.456 1093.68,967.856 1093.98,971.456C1094.48,977.256 1091.58,985.756 1087.68,990.056C1081.48,996.856 1070.28,1000.16 1052.68,1000.16C1036.58,1000.26 1025.28,1001.86 1018.68,1005.06L1012.78,1008.06L1007.68,1005.36C999.781,1001.06 987.381,987.956 982.881,979.156C975.481,964.256 974.381,949.156 979.381,931.156L980.681,926.656L981.281,936.156C981.681,942.456 982.481,947.156 983.881,950.156ZM987.481,1102.56C1004.58,1111.06 1011.58,1118.16 1011.58,1126.96C1011.48,1132.76 1009.28,1137.16 1003.68,1142.56C999.781,1146.36 990.981,1152.16 986.981,1153.66C985.881,1154.16 983.381,1152.46 978.881,1147.96C968.381,1137.66 963.181,1124.86 963.181,1109.26C963.181,1102.36 963.481,1100.86 965.281,1099.06C968.581,1095.76 976.081,1096.96 987.481,1102.56ZM1156.68,416.156C1195.78,419.856 1237.78,437.056 1282.78,467.656C1288.28,471.356 1291.78,474.056 1290.68,473.656C1289.58,473.256 1282.78,470.756 1275.58,468.156C1225.58,449.556 1176.18,440.156 1144.38,443.056C1130.68,444.356 1120.08,446.856 1111.08,450.956C1103.78,454.256 1091.88,462.756 1092.68,464.056C1093.48,465.556 1115.68,474.556 1131.68,480.056C1159.08,489.356 1187.88,495.756 1215.58,498.656C1237.68,500.956 1272.38,500.456 1290.68,497.656C1296.28,496.756 1273.78,507.056 1260.08,511.656C1245.18,516.556 1230.38,520.156 1213.58,522.856C1204.98,524.256 1196.78,524.656 1175.18,524.656C1151.28,524.556 1145.98,524.256 1134.68,522.356C1123.88,520.456 1109.88,517.156 1097.28,513.556C1095.18,512.956 1095.08,513.056 1096.08,514.956C1099.58,521.456 1123.28,534.956 1141.98,541.156C1164.28,548.456 1187.88,551.956 1221.18,553.056L1241.68,553.656L1232.68,557.456C1208.68,567.756 1178.38,575.356 1150.28,578.156C1144.58,578.656 1131.08,579.156 1120.28,579.256L1100.68,579.256L1105.78,581.156C1112.98,583.656 1135.78,585.156 1167.48,585.156C1194.28,585.156 1209.68,584.256 1228.18,581.556C1292.48,572.356 1336.48,544.956 1349.48,506.156C1350.88,502.056 1352.38,497.056 1352.98,495.156C1353.88,491.756 1353.88,491.856 1354.78,498.656C1355.28,502.456 1355.58,512.356 1355.58,520.656C1355.48,532.656 1354.98,537.256 1353.28,543.656C1349.78,556.656 1343.78,568.056 1335.58,577.156C1332.68,580.356 1332.28,581.456 1331.28,591.256C1327.28,628.456 1308.98,665.956 1277.48,701.656L1273.18,706.456L1273.18,667.656L1267.08,678.656C1258.98,693.356 1251.68,704.156 1243.98,712.956C1237.78,720.056 1226.88,729.156 1224.48,729.156C1223.48,729.156 1223.18,726.556 1223.18,719.256C1223.18,705.856 1221.58,686.256 1219.08,670.656C1217.18,658.656 1215.48,650.156 1214.88,650.156C1214.78,650.156 1208.38,652.256 1200.68,654.756C1159.88,668.156 1125.58,684.956 1096.98,705.656C1092.38,708.956 1082.58,717.756 1075.08,725.156L1061.38,738.756L1058.18,732.756C1053.28,723.856 1038.58,702.056 1029.18,689.656C1015.38,671.356 1000.68,654.556 981.981,635.656L964.281,617.656L949.681,625.056C923.481,638.356 888.781,662.856 866.081,684.056L860.681,689.156L870.581,684.556C882.081,679.256 897.481,673.956 908.181,671.656C919.681,669.156 941.781,668.556 952.781,670.556C985.381,676.156 1014.18,697.456 1033.98,730.556C1053.78,763.456 1048.38,787.256 1017.88,802.056C1012.28,804.856 1003.88,808.156 999.181,809.556C988.981,812.456 970.081,815.756 958.081,816.756L949.481,817.456L948.981,809.056C948.481,799.756 946.281,793.556 941.181,787.156L938.081,783.256L941.581,778.756C943.481,776.256 945.781,771.856 946.681,769.056C948.481,763.756 949.981,749.456 949.381,743.356L949.081,740.156L893.981,740.156L890.581,737.256C886.081,733.256 878.081,731.656 869.281,732.956L862.681,733.956L858.881,729.756L855.081,725.656L855.581,745.956C856.581,780.456 860.481,821.256 867.781,875.256L871.381,901.856L863.481,911.856C824.681,960.556 792.881,1022.96 782.181,1071.26C778.281,1088.76 795.081,1135.96 818.681,1174.36C826.481,1186.96 825.481,1186.86 836.381,1175.86C845.281,1166.86 861.481,1145.26 872.881,1127.06C877.781,1119.46 881.981,1113.16 882.281,1113.16C882.981,1113.16 885.881,1128.56 887.781,1142.66C888.581,1148.66 889.481,1162.36 889.881,1172.86L890.481,1192.16L896.081,1194.26C915.481,1201.66 952.281,1212.66 975.981,1218.26C992.181,1222.16 991.681,1221.66 988.581,1232.26C983.581,1248.96 973.181,1259.56 957.681,1263.66C952.881,1264.86 945.081,1265.16 918.081,1265.16C886.781,1265.16 884.281,1265.26 883.881,1266.86C883.581,1267.86 882.581,1272.76 881.681,1277.76C880.781,1282.76 879.681,1287.36 879.281,1288.06C877.781,1290.46 848.481,1278.56 831.881,1268.86C797.581,1248.66 769.781,1217.36 753.181,1180.46C747.081,1166.66 741.781,1150.76 738.981,1137.46C736.981,1127.76 736.881,1126.36 738.081,1117.86C745.781,1063.26 780.881,984.356 830.781,909.156L841.081,893.656L839.581,886.656C832.881,855.256 829.281,801.756 828.981,731.456L828.881,690.256L832.781,685.456C850.881,663.356 890.781,624.756 932.881,588.356L948.181,575.256L956.381,578.856C982.681,590.256 1018.98,600.656 1051.68,606.156C1070.28,609.256 1111.48,613.256 1110.18,611.856C1109.88,611.556 1103.68,607.756 1096.38,603.256C1078.38,592.356 1065.58,582.656 1053.58,570.656C1032.58,549.656 1023.58,529.256 1026.18,508.756C1027.38,499.756 1029.78,492.656 1035.78,481.056C1051.58,450.456 1079.78,427.756 1111.98,419.556C1127.88,415.556 1139.98,414.656 1156.68,416.156Z" style="stroke:black;stroke-width:12px;"/>
        </g>
    </g>
</svg>
